<?xml version="1.0" encoding="UTF-8"?>
<svg version="1.1" xmlns="http://www.w3.org/2000/svg" width="439" height="149">
<path d="M0 0 C2.48443664 1.07270992 3.92192035 2.18834082 6 4 C6 4.66 6 5.32 6 6 C7.56681519 5.99214478 7.56681519 5.99214478 9.1652832 5.98413086 C13.03978621 5.96603402 16.91428548 5.95455082 20.78881836 5.94506836 C22.46590808 5.94003887 24.14299342 5.93321452 25.82006836 5.92456055 C28.230317 5.91243441 30.64050768 5.90675785 33.05078125 5.90234375 C33.80087967 5.89718246 34.55097809 5.89202118 35.32380676 5.88670349 C38.48951232 5.88636215 40.97337972 5.99112657 44 7 C45.17598869 10.86396283 45.50286382 12.86771266 43.8359375 16.62109375 C39.80348606 23.46434263 39.80348606 23.46434263 36 26 C35.72929688 26.68449219 35.45859375 27.36898437 35.1796875 28.07421875 C33.43537022 32.40035663 30.7885889 36.00235424 28.125 39.8125 C27.59519531 40.60076172 27.06539062 41.38902344 26.51953125 42.20117188 C26.00003906 42.94560547 25.48054688 43.69003906 24.9453125 44.45703125 C24.47625488 45.13741455 24.00719727 45.81779785 23.52392578 46.51879883 C22 48 22 48 18 48 C18 48.66 18 49.32 18 50 C18.99 50.495 18.99 50.495 20 51 C18.68 52.98 17.36 54.96 16 57 C16.56847656 56.4946875 17.13695312 55.989375 17.72265625 55.46875 C24.81460578 49.50156709 24.81460578 49.50156709 29.0625 49.5625 C30.031875 49.706875 31.00125 49.85125 32 50 C32 49.34 32 48.68 32 48 C31.01 47.67 30.02 47.34 29 47 C31.28948786 44.99746128 33.58152766 42.99796725 35.875 41 C36.50664063 40.44699219 37.13828125 39.89398438 37.7890625 39.32421875 C39.12437044 38.16250084 40.47120202 37.01393187 41.82763672 35.87695312 C44.0549699 33.99816562 44.0549699 33.99816562 46.20751953 31.79492188 C52.31031336 26.090714 56.90764269 25.12960516 65.1875 25.296875 C67.1365625 25.39742187 67.1365625 25.39742187 69.125 25.5 C70.47645562 25.54022576 71.82802799 25.57671044 73.1796875 25.609375 C76.45616604 25.70298867 79.72652575 25.83399584 83 26 C82.13543466 31.57258842 79.59230771 35.18149945 76.4375 39.75 C75.93669922 40.52988281 75.43589844 41.30976562 74.91992188 42.11328125 C72.28956829 45.92779149 70.9452004 47.73591488 66.37890625 49.01171875 C64.91972689 49.04841228 63.45911216 49.03927501 62 49 C61.04794678 49.01659668 60.09589355 49.03319336 59.11499023 49.05029297 C55.90807653 49.09856962 52.70721876 49.08724165 49.5 49.0625 C45.705 49.041875 41.91 49.02125 38 49 C47.57 49.33 57.14 49.66 67 50 C65.43001685 53.13996631 63.82978589 55.86031651 61.875 58.75 C61.33617188 59.54921875 60.79734375 60.3484375 60.2421875 61.171875 C59.83226563 61.77515625 59.42234375 62.3784375 59 63 C59.71285156 62.48050781 60.42570312 61.96101563 61.16015625 61.42578125 C62.11792969 60.72839844 63.07570313 60.03101563 64.0625 59.3125 C65.00222656 58.62800781 65.94195312 57.94351563 66.91015625 57.23828125 C67.92980469 56.49964844 68.94945313 55.76101562 70 55 C70.46462646 54.5464917 70.92925293 54.0929834 71.40795898 53.62573242 C77.2779447 48.3460246 84.49366719 49.44900215 91.9375 49.6875 C93.3026935 49.71261632 94.66793154 49.73542363 96.03320312 49.75585938 C99.35661298 49.81457686 102.67772763 49.89666585 106 50 C106 49.34 106 48.68 106 48 C105.1642041 48.25124634 105.1642041 48.25124634 104.31152344 48.50756836 C101.76066709 49.0509859 99.6177034 49.02170324 97.015625 48.87890625 C96.08105469 48.83056641 95.14648438 48.78222656 94.18359375 48.73242188 C93.21550781 48.67634766 92.24742187 48.62027344 91.25 48.5625 C90.26644531 48.51029297 89.28289062 48.45808594 88.26953125 48.40429688 C85.84601151 48.27488563 83.42293136 48.13993095 81 48 C87.71353666 41.00987569 96.08310573 32.8655289 106.0625 31.6875 C110.10378863 31.69345182 113.03512679 32.03512679 116 35 C117.58308521 38.56194171 117.00198137 39.99468633 115.625 43.6875 C114.75506579 45.46082743 113.88334316 47.23331368 113 49 C112.34 49 111.68 49 111 49 C110.89276611 49.57508301 110.78553223 50.15016602 110.67504883 50.74267578 C109.90293763 53.32457096 108.79932695 54.95344188 107.19921875 57.1171875 C106.35133789 58.27541016 106.35133789 58.27541016 105.48632812 59.45703125 C104.89271484 60.25496094 104.29910156 61.05289063 103.6875 61.875 C102.52375889 63.45500731 101.3609775 65.03572201 100.19921875 66.6171875 C99.63283691 67.36500488 99.06645508 68.11282227 98.48291016 68.88330078 C96.80611992 71.14056196 96.80611992 71.14056196 95.37890625 74.546875 C92.41725321 77.60092772 91.3028966 77.42204113 87.140625 77.5859375 C84.84301947 77.54609463 82.54579168 77.47459497 80.25 77.375 C78.48849609 77.33439453 78.48849609 77.33439453 76.69140625 77.29296875 C73.79348724 77.2222878 70.89651184 77.11467129 68 77 C70.31 73.37 72.62 69.74 75 66 C73.80375 66.886875 72.6075 67.77375 71.375 68.6875 C70.70210938 69.18636719 70.02921875 69.68523437 69.3359375 70.19921875 C66.86503325 72.02696335 66.86503325 72.02696335 64.39648438 74.58203125 C60.56625512 77.76544672 57.13664698 77.64796577 52.3203125 77.48828125 C51.10116653 77.47766914 51.10116653 77.47766914 49.85739136 77.46684265 C47.27896377 77.43900674 44.70276338 77.37629411 42.125 77.3125 C40.36982318 77.28740291 38.61461209 77.26459221 36.859375 77.24414062 C32.57206753 77.18921623 28.28641044 77.10302347 24 77 C27.78786375 70.94255129 31.59666326 64.98897881 35.9375 59.3125 C36.70964844 58.29800781 37.48179688 57.28351562 38.27734375 56.23828125 C38.84582031 55.49964844 39.41429687 54.76101562 40 54 C37.24386048 55.83742635 34.74888951 57.77827036 32.1875 59.875 C31.17945313 60.66519531 30.17140625 61.45539063 29.1328125 62.26953125 C26.90499295 64.09879593 25.17358073 65.97076124 23.4296875 68.26171875 C19.01781788 73.57720549 14.91457633 76.83726102 7.85205078 77.52880859 C-2.74947268 78.19190323 -13.4101742 77.65421069 -24 77 C-20.20917253 69.3026411 -15.29874817 62.2334189 -10.25 55.3125 C-9.51265625 54.29800781 -8.7753125 53.28351562 -8.015625 52.23828125 C-7.35046875 51.49964844 -6.6853125 50.76101562 -6 50 C-5.01 50 -4.02 50 -3 50 C-3.33 49.01 -3.66 48.02 -4 47 C-2.51985363 44.44608011 -1.00675978 42.09218043 0.6875 39.6875 C1.13544922 39.03587891 1.58339844 38.38425781 2.04492188 37.71289062 C2.93298619 36.42151326 3.82599302 35.13351966 4.72412109 33.84912109 C5.9211289 32.11430725 7.06661266 30.35431053 8.20703125 28.58203125 C10 26 10 26 12 25 C7.87248551 25.60698743 4.6678852 27.03810791 1 29 C1.66 29.99 2.32 30.98 3 32 C3 32.99 3 33.98 3 35 C-0.83724172 35.90413673 -4.37502274 36.10576898 -8.3125 36.0625 C-9.91544922 36.04896484 -9.91544922 36.04896484 -11.55078125 36.03515625 C-12.35902344 36.02355469 -13.16726562 36.01195312 -14 36 C-11.03821227 34.32889958 -8.62928808 33.67317248 -5.25 33.375 C-4.45078125 33.30023438 -3.6515625 33.22546875 -2.828125 33.1484375 C-2.22484375 33.09945312 -1.6215625 33.05046875 -1 33 C-1.99 32.01 -2.98 31.02 -4 30 C-3.01 29.67 -2.02 29.34 -1 29 C-5.25959792 27.58013403 -9.61377156 27.2943245 -14.06640625 26.79296875 C-17 26 -17 26 -18.40234375 23.92578125 C-18.59957031 23.29027344 -18.79679687 22.65476562 -19 22 C-17.68 21.67 -16.36 21.34 -15 21 C-15.32226562 20.43023438 -15.64453125 19.86046875 -15.9765625 19.2734375 C-17.65132607 15.55316118 -17.56850534 12.00033633 -17 8 C-13.15661945 0.45050248 -8.08540651 -1.17301234 0 0 Z M-2 48 C-1 50 -1 50 -1 50 Z M1 48 C0.67 48.66 0.34 49.32 0 50 C5.61 50 11.22 50 17 50 C12.89441282 47.94720641 11.19793315 47.7783058 6.75 47.875 C5.13351563 47.90207031 5.13351563 47.90207031 3.484375 47.9296875 C2.66453125 47.95289063 1.8446875 47.97609375 1 48 Z M15 57 C14.67 57.66 14.34 58.32 14 59 C14.66 59 15.32 59 16 59 C15.67 58.34 15.34 57.68 15 57 Z " fill="#2F5C93" transform="translate(42,6)"/>
<path d="M0 0 C2.1875 2.0625 2.1875 2.0625 3 5 C2.54968753 9.2779685 1.38649467 12.42025799 -1 16 C-1.66 16 -2.32 16 -3 16 C-3.10723389 16.57508301 -3.21446777 17.15016602 -3.32495117 17.74267578 C-4.09706237 20.32457096 -5.20067305 21.95344188 -6.80078125 24.1171875 C-7.36603516 24.88933594 -7.93128906 25.66148438 -8.51367188 26.45703125 C-9.10728516 27.25496094 -9.70089844 28.05289063 -10.3125 28.875 C-11.47624111 30.45500731 -12.6390225 32.03572201 -13.80078125 33.6171875 C-14.36716309 34.36500488 -14.93354492 35.11282227 -15.51708984 35.88330078 C-17.19388008 38.14056196 -17.19388008 38.14056196 -18.62109375 41.546875 C-21.58274679 44.60092772 -22.6971034 44.42204113 -26.859375 44.5859375 C-29.15698053 44.54609463 -31.45420832 44.47459497 -33.75 44.375 C-35.51150391 44.33439453 -35.51150391 44.33439453 -37.30859375 44.29296875 C-40.20651276 44.2222878 -43.10348816 44.11467129 -46 44 C-42.535 38.555 -42.535 38.555 -39 33 C-40.19625 33.886875 -41.3925 34.77375 -42.625 35.6875 C-43.29789063 36.18636719 -43.97078125 36.68523437 -44.6640625 37.19921875 C-47.13496675 39.02696335 -47.13496675 39.02696335 -49.60351562 41.58203125 C-53.43374488 44.76544672 -56.86335302 44.64796577 -61.6796875 44.48828125 C-62.49245148 44.48120651 -63.30521545 44.47413177 -64.14260864 44.46684265 C-66.72103623 44.43900674 -69.29723662 44.37629411 -71.875 44.3125 C-73.63017682 44.28740291 -75.38538791 44.26459221 -77.140625 44.24414062 C-81.42793247 44.18921623 -85.71358956 44.10302347 -90 44 C-86.03958643 37.68480433 -82.02198612 31.45767258 -77.625 25.4375 C-74.57545003 21.36745396 -74.57545003 21.36745396 -72 17 C-63.75 17 -55.5 17 -47 17 C-48.56998315 20.13996631 -50.17021411 22.86031651 -52.125 25.75 C-52.66382813 26.54921875 -53.20265625 27.3484375 -53.7578125 28.171875 C-54.16773438 28.77515625 -54.57765625 29.3784375 -55 30 C-54.28714844 29.48050781 -53.57429688 28.96101563 -52.83984375 28.42578125 C-51.88207031 27.72839844 -50.92429688 27.03101562 -49.9375 26.3125 C-48.52791016 25.28576172 -48.52791016 25.28576172 -47.08984375 24.23828125 C-46.07019531 23.49964844 -45.05054688 22.76101562 -44 22 C-43.53537354 21.5464917 -43.07074707 21.0929834 -42.59204102 20.62573242 C-36.7220553 15.3460246 -29.50633281 16.44900215 -22.0625 16.6875 C-20.6973065 16.71261632 -19.33206846 16.73542363 -17.96679688 16.75585938 C-14.64338702 16.81457686 -11.32227237 16.89666585 -8 17 C-8 16.34 -8 15.68 -8 15 C-8.55719727 15.16749756 -9.11439453 15.33499512 -9.68847656 15.50756836 C-12.23933291 16.0509859 -14.3822966 16.02170324 -16.984375 15.87890625 C-17.91894531 15.83056641 -18.85351562 15.78222656 -19.81640625 15.73242188 C-20.78449219 15.67634766 -21.75257813 15.62027344 -22.75 15.5625 C-23.73355469 15.51029297 -24.71710938 15.45808594 -25.73046875 15.40429688 C-28.15398849 15.27488563 -30.57706864 15.13993095 -33 15 C-29.28891152 11.09211138 -25.38242813 7.87763034 -21 4.75 C-20.39671875 4.30398437 -19.7934375 3.85796875 -19.171875 3.3984375 C-12.99186432 -1.03504842 -7.33457234 -2.01313598 0 0 Z " fill="#316098" transform="translate(156,39)"/>
<path d="M0 0 C9.24 0 18.48 0 28 0 C29 2 29 2 28.375 4.3125 C27.79148898 7.01897266 27.79148898 7.01897266 28.875 9.5625 C33.44593451 14.80563076 39.51996438 16.17975991 46.25 16.9375 C57.03846087 17.44104543 67.54920877 14.96027951 76 8 C76.44126221 7.3488623 76.88252441 6.69772461 77.3371582 6.02685547 C79.9338922 2.33570467 81.6444526 0.27549495 86.18457031 -0.6472168 C89.96447402 -0.78701518 93.66043703 -0.69829104 97.4375 -0.5 C99.39333008 -0.44585937 99.39333008 -0.44585937 101.38867188 -0.390625 C104.59548584 -0.29665243 107.7962071 -0.16538988 111 0 C109.39363829 7.26116994 103.11162412 12.45249174 97.21484375 16.62890625 C81.46598217 26.37820151 63.38265188 29.35847057 45.1875 29.3125 C43.92357422 29.32861328 42.65964844 29.34472656 41.35742188 29.36132812 C30.386723 29.36694548 19.23975958 28.26579021 9.375 23.125 C8.43398438 22.65320313 7.49296875 22.18140625 6.5234375 21.6953125 C2.28882288 18.85038565 -0.28711773 15.56497503 -1.375 10.5625 C-1.54773438 9.84191406 -1.72046875 9.12132813 -1.8984375 8.37890625 C-2 6 -2 6 0 0 Z " fill="#3566A1" transform="translate(269,84)"/>
<path d="M0 0 C1.35287085 -0.01574616 2.70573568 -0.03201939 4.05859375 -0.04882812 C5.34636719 -0.04947266 6.63414062 -0.05011719 7.9609375 -0.05078125 C9.70189697 -0.05525269 9.70189697 -0.05525269 11.47802734 -0.05981445 C14.97645039 0.35407966 16.8244902 1.21009461 19.625 3.3125 C22.53049127 7.72083158 23.01941267 11.08653212 22.625 16.3125 C22.13 17.7975 22.13 17.7975 21.625 19.3125 C20.965 19.3125 20.305 19.3125 19.625 19.3125 C19.49158203 20.43785156 19.49158203 20.43785156 19.35546875 21.5859375 C17.87836103 27.09941977 12.33855377 30.19496493 7.75 33.1875 C1.20852738 35.54243014 -5.20457704 36.27427743 -11.6796875 33.390625 C-14.61560622 31.52354305 -15.91353331 29.41811671 -17.375 26.3125 C-17.76834903 22.45767946 -17.25931953 19.07085799 -16.375 15.3125 C-20.29387533 15.72071618 -23.04919836 16.16045924 -26.65625 17.84375 C-33.09001699 20.3243014 -40.09206361 19.62664242 -46.875 19.5 C-48.28383986 19.48492613 -49.69269532 19.4712425 -51.1015625 19.45898438 C-54.52644396 19.42379724 -57.95051763 19.37456079 -61.375 19.3125 C-57.96888919 15.74005612 -54.46945298 13.53007459 -50.0625 11.375 C-49.35971924 11.02872559 -48.65693848 10.68245117 -47.93286133 10.32568359 C-32.36779178 2.85041141 -17.24267764 -0.04222007 0 0 Z " fill="#2D598D" transform="translate(265.375,11.6875)"/>
<path d="M0 0 C9.24 0 18.48 0 28 0 C27.835 3.691875 27.67 7.38375 27.5 11.1875 C27.20166975 17.94601959 26.94112208 24.67270402 27.0625 31.4375 C27.12941129 38.61612544 25.65674839 44.35812903 23 51 C13.43 51 3.86 51 -6 51 C-5.67 48.36 -5.34 45.72 -5 43 C-4.93853057 41.27701193 -4.91260607 39.55202948 -4.9375 37.828125 C-4.94620117 36.92215576 -4.95490234 36.01618652 -4.96386719 35.08276367 C-4.97579102 34.14795166 -4.98771484 33.21313965 -5 32.25 C-5.05222195 20.12346027 -5.0294876 11.31634709 0 0 Z M-3 22 C-3 22.66 -3 23.32 -3 24 C6.24 24 15.48 24 25 24 C25 23.34 25 22.68 25 22 C15.76 22 6.52 22 -3 22 Z " fill="#305E95" transform="translate(359,32)"/>
<path d="M0 0 C1.4042185 0.03518247 2.80852252 0.06710924 4.21289062 0.09570312 C7.62330815 0.17774066 11.029276 0.29250309 14.4375 0.4375 C13.64730469 1.22511719 12.85710937 2.01273438 12.04296875 2.82421875 C10.59185238 4.27968629 9.15049735 5.7457621 7.75 7.25 C6.4375 8.4375 6.4375 8.4375 4.4375 8.4375 C4.4375 9.0975 4.4375 9.7575 4.4375 10.4375 C2.72265625 12.09375 2.72265625 12.09375 0.5 13.9375 C-2.48295179 16.32676999 -2.48295179 16.32676999 -4.5625 19.4375 C-5.2225 19.4375 -5.8825 19.4375 -6.5625 19.4375 C-7.0575 20.9225 -7.0575 20.9225 -7.5625 22.4375 C-10.125 23.625 -10.125 23.625 -12.5625 24.4375 C-11.9025 24.4375 -11.2425 24.4375 -10.5625 24.4375 C-11.59237104 27.87040346 -12.79811875 30.89916579 -14.5625 34 C-17.33990097 39.63425167 -17.33990097 39.63425167 -18.5625 51.4375 C-28.7925 51.4375 -39.0225 51.4375 -49.5625 51.4375 C-48.43370623 40.14956226 -48.43370623 40.14956226 -46.25 35.6875 C-45.80398437 34.77613281 -45.35796875 33.86476562 -44.8984375 32.92578125 C-42.81340512 29.04225603 -40.69956755 25.57456755 -37.5625 22.4375 C-36.65576394 21.21635391 -35.76134491 19.98602619 -34.875 18.75 C-32.31675124 15.32664296 -29.6656731 12.19347162 -26.53613281 9.27880859 C-25.25242786 8.08117095 -23.99809697 6.85097869 -22.78076172 5.5859375 C-15.89133519 -0.81491344 -8.85347719 -0.38811769 0 0 Z M-34.5625 22.4375 C-34.5625 23.0975 -34.5625 23.7575 -34.5625 24.4375 C-27.6325 24.4375 -20.7025 24.4375 -13.5625 24.4375 C-16.66335571 22.37026286 -17.29181681 22.19252577 -20.79296875 22.2421875 C-21.59541016 22.24863281 -22.39785156 22.25507812 -23.22460938 22.26171875 C-24.05798828 22.27847656 -24.89136719 22.29523437 -25.75 22.3125 C-27.0174707 22.32603516 -27.0174707 22.32603516 -28.31054688 22.33984375 C-30.39465243 22.36339297 -32.47861217 22.39926353 -34.5625 22.4375 Z " fill="#305E95" transform="translate(215.5625,31.5625)"/>
<path d="M0 0 C4.32306854 -0.1983934 8.64370346 -0.34319621 12.9699707 -0.43945312 C14.43984127 -0.47958611 15.90939433 -0.53411158 17.37817383 -0.60351562 C29.69418204 -1.17072765 29.69418204 -1.17072765 32.93041992 1.73071289 C34.1796875 3.87890625 34.1796875 3.87890625 35.13452148 6.08056641 C35.90891488 8.25540283 35.90891488 8.25540283 38.46484375 9.62109375 C39.68880859 10.02521484 39.68880859 10.02521484 40.9375 10.4375 C41.75089844 10.72496094 42.56429687 11.01242188 43.40234375 11.30859375 C49.5981953 12.95771514 55.62115097 13.19934892 61.9921875 13.31640625 C63.41109787 13.3475779 63.41109787 13.3475779 64.8586731 13.37937927 C67.86404541 13.44447585 70.86950101 13.50357336 73.875 13.5625 C75.91927926 13.6057232 77.96355026 13.64933868 80.0078125 13.69335938 C85.00512416 13.8001161 90.00251916 13.90149471 95 14 C91.74377053 19.68411986 88.70482 23.14662338 82.421875 25.12890625 C75.49125032 26.53851291 68.37856903 26.29719839 61.33691406 26.26074219 C58.90143393 26.25011534 56.46670633 26.26062968 54.03125 26.2734375 C37.40085299 26.28906549 17.7096042 26.25022092 5 14 C1.02616129 9.31290818 0.62233687 5.88501082 0 0 Z " fill="#3566A1" transform="translate(166,84)"/>
<path d="M0 0 C1.80698072 4.24247648 1.99283305 7.82308975 1.4375 12.375 C1.1075 13.035 0.7775 13.695 0.4375 14.375 C-12.1025 14.375 -24.6425 14.375 -37.5625 14.375 C-37.2325 12.725 -36.9025 11.075 -36.5625 9.375 C-37.779375 9.4575 -38.99625 9.54 -40.25 9.625 C-40.93449219 9.67140625 -41.61898437 9.7178125 -42.32421875 9.765625 C-44.75852394 10.24710321 -44.75852394 10.24710321 -46.7890625 12.38867188 C-50.20702052 14.83660378 -52.01289165 14.84165951 -56.17578125 14.765625 C-57.42294922 14.75273437 -58.67011719 14.73984375 -59.95507812 14.7265625 C-61.24865234 14.69304688 -62.54222656 14.65953125 -63.875 14.625 C-65.18791016 14.60695313 -66.50082031 14.58890625 -67.85351562 14.5703125 C-71.09058488 14.52322786 -74.32617053 14.45747042 -77.5625 14.375 C-73.242725 5.26933804 -64.14035736 0.94182622 -55.0625 -2.3125 C-46.83892078 -5.143309 -37.81185081 -4.96990186 -29.20874023 -5.29248047 C-27.82106569 -5.34743466 -26.43365757 -5.40959555 -25.04663086 -5.47900391 C-6.26371037 -6.41648379 -6.26371037 -6.41648379 0 0 Z " fill="#2D588C" transform="translate(437.5625,16.625)"/>
<path d="M0 0 C1.28361168 0.00212242 1.28361168 0.00212242 2.59315491 0.00428772 C5.30302556 0.00984635 8.01281093 0.022391 10.72265625 0.03515625 C12.56966026 0.0401766 14.41666557 0.04473857 16.26367188 0.04882812 C20.77086576 0.0598022 25.27799659 0.07703795 29.78515625 0.09765625 C29.97917258 1.9094703 30.1652 3.72214157 30.34765625 5.53515625 C30.50427734 7.04916016 30.50427734 7.04916016 30.6640625 8.59375 C30.72400391 9.83318359 30.72400391 9.83318359 30.78515625 11.09765625 C29.05744827 12.82536423 26.70682562 12.2680531 24.3515625 12.30859375 C23.22685547 12.33695313 22.10214844 12.3653125 20.94335938 12.39453125 C18.58152278 12.44584763 16.21952595 12.49033261 13.85742188 12.52734375 C4.9938828 12.76866529 -3.8694227 13.64782773 -11.21484375 19.09765625 C-11.54484375 19.75765625 -11.87484375 20.41765625 -12.21484375 21.09765625 C-22.11484375 21.09765625 -32.01484375 21.09765625 -42.21484375 21.09765625 C-40.41022489 13.87918079 -37.0133165 10.36080496 -30.84765625 6.484375 C-21.03508549 1.31603283 -10.92986048 -0.06905226 0 0 Z " fill="#326199" transform="translate(312.21484375,61.90234375)"/>
<path d="M0 0 C0.95310059 0.01047363 1.90620117 0.02094727 2.88818359 0.03173828 C4.43505859 0.04140625 4.43505859 0.04140625 6.01318359 0.05126953 C7.63353516 0.07640625 7.63353516 0.07640625 9.28662109 0.10205078 C10.37458984 0.11107422 11.46255859 0.12009766 12.58349609 0.12939453 C15.27642261 0.15301669 17.96891365 0.18595522 20.66162109 0.22705078 C19.66162109 4.22705078 19.66162109 4.22705078 13.66162109 13.22705078 C23.23162109 13.55705078 32.80162109 13.88705078 42.66162109 14.22705078 C38.77554656 20.70384167 36.78985415 22.61336533 29.66162109 25.22705078 C22.87431479 26.41210396 16.13884904 26.44808568 9.2734375 26.46728516 C7.16675856 26.47702702 5.06104229 26.50813317 2.95458984 26.53955078 C1.59652263 26.54607957 0.23844855 26.55133053 -1.11962891 26.55517578 C-2.33714844 26.56452148 -3.55466797 26.57386719 -4.80908203 26.58349609 C-8.9323772 26.16705925 -11.63122051 25.02600817 -15.33837891 23.22705078 C-14.95427568 17.12059343 -13.08094504 13.71979842 -9.40087891 8.91455078 C-8.94519531 8.29515625 -8.48951172 7.67576172 -8.02001953 7.03759766 C-3.01838297 0.29307749 -3.01838297 0.29307749 0 0 Z " fill="#3566A1" transform="translate(111.33837890625,83.77294921875)"/>
<path d="M0 0 C1.41799815 0.00094446 2.83622994 0.03453973 4.25292969 0.09521484 C5.37643829 0.10794937 5.37643829 0.10794937 6.52264404 0.12094116 C8.90817938 0.15445304 11.29029681 0.22971348 13.67480469 0.30615234 C15.29454742 0.33625548 16.91434331 0.3636307 18.53417969 0.38818359 C22.49903244 0.45423512 26.46133978 0.55772921 30.42480469 0.68115234 C28.6394065 4.55600992 26.19499651 7.05172809 23.04980469 9.86865234 C22.52177246 10.3455249 21.99374023 10.82239746 21.44970703 11.3137207 C11.27893922 20.36928595 3.12704145 27.09802488 -10.95019531 26.80615234 C-11.78164062 26.79712891 -12.61308594 26.78810547 -13.46972656 26.77880859 C-15.50500869 26.75541455 -17.54014095 26.7195496 -19.57519531 26.68115234 C-18.96652852 23.62305515 -18.00193648 21.54484564 -16.21191406 19.00146484 C-15.73689453 18.31955078 -15.261875 17.63763672 -14.77246094 16.93505859 C-14.27423828 16.23251953 -13.77601562 15.52998047 -13.26269531 14.80615234 C-12.28708803 13.41316605 -11.3118222 12.01994054 -10.33691406 10.62646484 C-9.90338623 10.01303223 -9.4698584 9.39959961 -9.02319336 8.76757812 C-7.427349 6.55972399 -7.427349 6.55972399 -5.8918457 3.47119141 C-3.57519531 0.68115234 -3.57519531 0.68115234 0 0 Z " fill="#3465A0" transform="translate(19.5751953125,83.31884765625)"/>
<path d="M0 0 C1.4282618 0.00031703 2.85654759 0.01163717 4.28466797 0.03173828 C5.41242142 0.03598312 5.41242142 0.03598312 6.56295776 0.04031372 C8.96775125 0.05152204 11.37217428 0.07662726 13.77685547 0.10205078 C15.40575635 0.11207976 17.03466305 0.12120576 18.66357422 0.12939453 C22.65981103 0.15146343 26.65577041 0.18599728 30.65185547 0.22705078 C28.7535379 4.50166326 25.8188325 6.72259338 22.15185547 9.47705078 C20.87656977 10.45159697 19.60183318 11.42686212 18.32763672 12.40283203 C17.70066895 12.88059082 17.07370117 13.35834961 16.42773438 13.85058594 C14.01055347 15.72411714 11.68157217 17.69856417 9.33935547 19.66455078 C3.60129996 24.22124192 -1.67378986 27.74844141 -9.22314453 27.10205078 C-12.3985122 26.63541969 -13.55560273 26.08874531 -16.34814453 24.22705078 C-15.99188733 17.63992781 -14.42208272 14.01684778 -10.41064453 8.85205078 C-9.95496094 8.23716797 -9.49927734 7.62228516 -9.02978516 6.98876953 C-4.01055875 0.27197168 -4.01055875 0.27197168 0 0 Z " fill="#3465A0" transform="translate(68.34814453125,83.77294921875)"/>
<path d="M0 0 C3.8363577 1.81355091 5.50641782 3.03429573 7.4375 6.8125 C8.53370285 13.02431615 7.03901916 17.58261802 4 23 C5.65 23.33 7.3 23.66 9 24 C6.59078295 26.40921705 4.05665491 27.53812156 1 29 C1.66 29.99 2.32 30.98 3 32 C3 32.99 3 33.98 3 35 C-0.83724172 35.90413673 -4.37502274 36.10576898 -8.3125 36.0625 C-9.91544922 36.04896484 -9.91544922 36.04896484 -11.55078125 36.03515625 C-12.35902344 36.02355469 -13.16726562 36.01195312 -14 36 C-11.03821227 34.32889958 -8.62928808 33.67317248 -5.25 33.375 C-4.45078125 33.30023438 -3.6515625 33.22546875 -2.828125 33.1484375 C-2.22484375 33.09945312 -1.6215625 33.05046875 -1 33 C-1.99 32.01 -2.98 31.02 -4 30 C-3.01 29.67 -2.02 29.34 -1 29 C-5.25959792 27.58013403 -9.61377156 27.2943245 -14.06640625 26.79296875 C-17 26 -17 26 -18.40234375 23.92578125 C-18.59957031 23.29027344 -18.79679687 22.65476562 -19 22 C-17.68 21.67 -16.36 21.34 -15 21 C-15.32226562 20.43023438 -15.64453125 19.86046875 -15.9765625 19.2734375 C-17.65132607 15.55316118 -17.56850534 12.00033633 -17 8 C-13.13782065 0.41357629 -8.10197775 -1.12332447 0 0 Z " fill="#C02922" transform="translate(42,6)"/>
<path d="M0 0 C12.21 0 24.42 0 37 0 C32.48600509 7.89949109 32.48600509 7.89949109 28 10.375 C27.154375 10.85710938 26.30875 11.33921875 25.4375 11.8359375 C19.78328106 14.53618949 12.85446793 15.35998594 6.86328125 13.24609375 C4.31373731 11.88313001 2.32575314 10.42489539 0.5625 8.125 C0 6 0 6 0 0 Z " fill="#2E5B90" transform="translate(400,32)"/>
<path d="M0 0 C0.75539063 -0.02578125 1.51078125 -0.0515625 2.2890625 -0.078125 C4.375 0.25 4.375 0.25 6.1484375 1.453125 C7.375 3.25 7.375 3.25 7.375 8.25 C-1.205 8.25 -9.785 8.25 -18.625 8.25 C-18.625 7.59 -18.625 6.93 -18.625 6.25 C-17.23422699 5.42886823 -15.83711107 4.61847505 -14.4375 3.8125 C-13.66019531 3.36003906 -12.88289063 2.90757813 -12.08203125 2.44140625 C-8.15682926 0.53808891 -4.32636373 0.08920338 0 0 Z " fill="#2D598D" transform="translate(118.625,22.75)"/>
<path d="M0 0 C0.99 0 1.98 0 3 0 C3.33 0.66 3.66 1.32 4 2 C4.66 1.67 5.32 1.34 6 1 C6.66 1.99 7.32 2.98 8 4 C15.22040322 5.10880049 23.38725315 4.00579402 30 1 C30 1.66 30 2.32 30 3 C29.34 3 28.68 3 28 3 C28 3.99 28 4.98 28 6 C23.16552525 7.23095456 18.39317818 7.21980546 13.4375 7.25 C12.16229492 7.2809375 12.16229492 7.2809375 10.86132812 7.3125 C7.25183253 7.33514782 4.68609851 7.33528796 1.41015625 5.734375 C0 4 0 4 0 0 Z M26 3 C27 5 27 5 27 5 Z " fill="#396DAC" transform="translate(90,134)"/>
<path d="M0 0 C1.09570312 0.00902344 2.19140625 0.01804688 3.3203125 0.02734375 C4.16335938 0.03894531 5.00640625 0.05054688 5.875 0.0625 C5.545 2.7025 5.215 5.3425 4.875 8.0625 C6.525 8.3925 8.175 8.7225 9.875 9.0625 C8.0625 10.125 8.0625 10.125 5.875 11.0625 C2.875 10.0625 2.875 10.0625 1.1875 7 C0.754375 6.030625 0.32125 5.06125 -0.125 4.0625 C-1.053125 4.0625 -1.98125 4.0625 -2.9375 4.0625 C-5 4.0625 -7.0625 4.0625 -9.125 4.0625 C-8.795 3.0725 -8.465 2.0825 -8.125 1.0625 C-5.36047967 -0.31976016 -3.0788637 -0.03275387 0 0 Z " fill="#396CAA" transform="translate(292.125,129.9375)"/>
<path d="M0 0 C0 0.99 0 1.98 0 3 C0.99 4.485 0.99 4.485 2 6 C2 6.99 2 7.98 2 9 C-1.83724172 9.90413673 -5.37502274 10.10576898 -9.3125 10.0625 C-10.38113281 10.05347656 -11.44976563 10.04445313 -12.55078125 10.03515625 C-13.35902344 10.02355469 -14.16726562 10.01195312 -15 10 C-12.03821227 8.32889958 -9.62928808 7.67317248 -6.25 7.375 C-5.45078125 7.30023438 -4.6515625 7.22546875 -3.828125 7.1484375 C-3.22484375 7.09945312 -2.6215625 7.05046875 -2 7 C-2.99 6.01 -3.98 5.02 -5 4 C-4.01 3.67 -3.02 3.34 -2 3 C-2 2.34 -2 1.68 -2 1 C-1.34 0.67 -0.68 0.34 0 0 Z " fill="#2F5B90" transform="translate(43,32)"/>
<path d="M0 0 C4.62 0 9.24 0 14 0 C14 0.66 14 1.32 14 2 C14.99 2.33 15.98 2.66 17 3 C13.16275828 3.90413673 9.62497726 4.10576898 5.6875 4.0625 C4.61886719 4.05347656 3.55023438 4.04445312 2.44921875 4.03515625 C1.64097656 4.02355469 0.83273438 4.01195312 0 4 C0 2.68 0 1.36 0 0 Z " fill="#396DAC" transform="translate(236,137)"/>
<path d="M0 0 C5.51639835 0.56578445 10.73280235 2.34489244 16 4 C16 4.33 16 4.66 16 5 C11.05 5 6.1 5 1 5 C0.34 3.68 -0.32 2.36 -1 1 C-0.67 0.67 -0.34 0.34 0 0 Z " fill="#591111" transform="translate(24,27)"/>
<path d="M0 0 C1.4540625 0.0309375 1.4540625 0.0309375 2.9375 0.0625 C2.9375 1.3825 2.9375 2.7025 2.9375 4.0625 C0.9575 5.0525 -1.0225 6.0425 -3.0625 7.0625 C-4.0625 6.0625 -4.0625 6.0625 -4.1875 3.5625 C-4.00295237 -0.12845252 -3.76342282 0.07680455 0 0 Z " fill="#386AA8" transform="translate(163.0625,119.9375)"/>
<path d="M0 0 C-3.43661808 3.43661808 -8.29751475 3.512472 -13 4 C-16.09058495 3.8893057 -18.93879003 3.5018377 -22 3 C-22 2.67 -22 2.34 -22 2 C-18.37 2 -14.74 2 -11 2 C-11 1.34 -11 0.68 -11 0 C-7.18243176 -1.37432457 -3.92744671 -0.67975039 0 0 Z " fill="#842127" transform="translate(51,30)"/>
<path d="M0 0 C1.98 0 3.96 0 6 0 C6.33 1.32 6.66 2.64 7 4 C6.01 4.33 5.02 4.66 4 5 C4 5.66 4 6.32 4 7 C3.34 7 2.68 7 2 7 C2 6.34 2 5.68 2 5 C1.01 4.67 0.02 4.34 -1 4 C-0.67 2.68 -0.34 1.36 0 0 Z M0 2 C1 4 1 4 1 4 Z " fill="#386AA8" transform="translate(252,120)"/>
<path d="M0 0 C4.29 0 8.58 0 13 0 C13 0.99 13 1.98 13 3 C8.71 3 4.42 3 0 3 C0 2.01 0 1.02 0 0 Z " fill="#396DAC" transform="translate(215,138)"/>
<path d="M0 0 C0.33 0.99 0.66 1.98 1 3 C0.01 3.495 0.01 3.495 -1 4 C-1.99 3.67 -2.98 3.34 -4 3 C-4.99 3.33 -5.98 3.66 -7 4 C-7.66 3.67 -8.32 3.34 -9 3 C-9.33 3.66 -9.66 4.32 -10 5 C-9.625 3.0625 -9.625 3.0625 -9 1 C-6.04335481 -0.4783226 -3.25770263 -0.06032783 0 0 Z " fill="#396CAA" transform="translate(221,130)"/>
<path d="M0 0 C1.22589844 0.01353516 1.22589844 0.01353516 2.4765625 0.02734375 C3.41628906 0.04474609 3.41628906 0.04474609 4.375 0.0625 C4.375 1.0525 4.375 2.0425 4.375 3.0625 C-0.08 3.5575 -0.08 3.5575 -4.625 4.0625 C-4.625 3.4025 -4.625 2.7425 -4.625 2.0625 C-5.285 1.7325 -5.945 1.4025 -6.625 1.0625 C-4.21954362 -0.14022819 -2.67503047 -0.03821472 0 0 Z " fill="#396CAA" transform="translate(198.625,129.9375)"/>
<path d="M0 0 C0.99 0 1.98 0 3 0 C1.125 3.875 1.125 3.875 0 5 C-1.66617115 5.04063832 -3.33388095 5.042721 -5 5 C-5 4.01 -5 3.02 -5 2 C-4.01 2.33 -3.02 2.66 -2 3 C-1.34 2.01 -0.68 1.02 0 0 Z " fill="#3A6EAD" transform="translate(290,144)"/>
<path d="M0 0 C0.99 0 1.98 0 3 0 C1 2 1 2 -2.125 2.125 C-3.548125 2.063125 -3.548125 2.063125 -5 2 C-5.33 1.34 -5.66 0.68 -6 0 C-3.47064411 -1.26467795 -2.65809097 -0.7249339 0 0 Z " fill="#3A6FAE" transform="translate(144,147)"/>
<path d="M0 0 C4.455 0.99 4.455 0.99 9 2 C9 2.33 9 2.66 9 3 C6.36 3 3.72 3 1 3 C0.67 2.01 0.34 1.02 0 0 Z " fill="#2F5B91" transform="translate(14,38)"/>
<path d="M0 0 C0.99 0.33 1.98 0.66 3 1 C2.67 2.32 2.34 3.64 2 5 C1.34 4.34 0.68 3.68 0 3 C0 2.01 0 1.02 0 0 Z " fill="#396DAB" transform="translate(125,135)"/>
<path d="M0 0 C0.66 1.32 1.32 2.64 2 4 C1.01 4 0.02 4 -1 4 C-0.67 2.68 -0.34 1.36 0 0 Z " fill="#396DAB" transform="translate(291,134)"/>
<path d="M0 0 C0.99 0.33 1.98 0.66 3 1 C2.34 1.66 1.68 2.32 1 3 C0.34 2.34 -0.32 1.68 -1 1 C-0.67 0.67 -0.34 0.34 0 0 Z " fill="#376AA7" transform="translate(108,119)"/>
<path d="M0 0 C1.32 0.33 2.64 0.66 4 1 C2.68 1.33 1.36 1.66 0 2 C0 1.34 0 0.68 0 0 Z " fill="#396CAA" transform="translate(274,130)"/>
<path d="M0 0 C1.65 0 3.3 0 5 0 C4.34 0.66 3.68 1.32 3 2 C2.01 1.34 1.02 0.68 0 0 Z " fill="#376AA7" transform="translate(102,119)"/>
<path d="M0 0 C1.32 0.33 2.64 0.66 4 1 C3.01 1.495 3.01 1.495 2 2 C1.34 1.34 0.68 0.68 0 0 Z " fill="#396CAA" transform="translate(143,130)"/>
<path d="M0 0 C1.32 0 2.64 0 4 0 C3.67 0.66 3.34 1.32 3 2 C2.01 1.34 1.02 0.68 0 0 Z " fill="#396CAA" transform="translate(129,130)"/>
<path d="M0 0 C0.33 0.66 0.66 1.32 1 2 C0.34 1.67 -0.32 1.34 -1 1 C-0.67 0.67 -0.34 0.34 0 0 Z " fill="#396EAC" transform="translate(206,139)"/>
<path d="M0 0 C0.99 0.495 0.99 0.495 2 1 C1.01 1.495 1.01 1.495 0 2 C0 1.34 0 0.68 0 0 Z " fill="#396DAC" transform="translate(120,137)"/>
<path d="M0 0 C3 1 3 1 3 1 Z " fill="#396DAB" transform="translate(219,135)"/>
<path d="M0 0 C0.33 0.66 0.66 1.32 1 2 C0.34 1.67 -0.32 1.34 -1 1 C-0.67 0.67 -0.34 0.34 0 0 Z " fill="#396DAB" transform="translate(214,135)"/>
<path d="M0 0 C0.66 0 1.32 0 2 0 C1.67 0.66 1.34 1.32 1 2 C0.67 1.34 0.34 0.68 0 0 Z " fill="#396CAA" transform="translate(184,130)"/>
<path d="M0 0 C0.99 0.495 0.99 0.495 2 1 C1.01 1.495 1.01 1.495 0 2 C0 1.34 0 0.68 0 0 Z " fill="#386AA7" transform="translate(100,120)"/>
<path d="" fill="#3A6FAE" transform="translate(0,0)"/>
<path d="" fill="#3A6EAD" transform="translate(0,0)"/>
<path d="" fill="#396DAB" transform="translate(0,0)"/>
<path d="" fill="#396DAB" transform="translate(0,0)"/>
<path d="M0 0 C2 1 2 1 2 1 Z " fill="#396DAB" transform="translate(237,134)"/>
<path d="" fill="#396CAB" transform="translate(0,0)"/>
<path d="" fill="#396CAB" transform="translate(0,0)"/>
<path d="" fill="#396CAB" transform="translate(0,0)"/>
<path d="M0 0 C2 1 2 1 2 1 Z " fill="#396CAB" transform="translate(182,132)"/>
<path d="M0 0 C2 1 2 1 2 1 Z " fill="#386BA9" transform="translate(163,126)"/>
<path d="M0 0 C2 1 2 1 2 1 Z " fill="#376AA7" transform="translate(112,119)"/>
<path d="" fill="#2F5B90" transform="translate(0,0)"/>
<path d="M0 0 C2 1 2 1 2 1 Z " fill="#2B5688" transform="translate(25,0)"/>
<path d="" fill="#3A6FAE" transform="translate(0,0)"/>
<path d="" fill="#3A6FAE" transform="translate(0,0)"/>
<path d="" fill="#3A6EAD" transform="translate(0,0)"/>
<path d="" fill="#3A6EAD" transform="translate(0,0)"/>
<path d="" fill="#3A6EAD" transform="translate(0,0)"/>
<path d="" fill="#3A6EAD" transform="translate(0,0)"/>
<path d="" fill="#3A6EAD" transform="translate(0,0)"/>
<path d="" fill="#3A6EAD" transform="translate(0,0)"/>
<path d="" fill="#3A6EAD" transform="translate(0,0)"/>
<path d="" fill="#396EAD" transform="translate(0,0)"/>
<path d="" fill="#396EAD" transform="translate(0,0)"/>
<path d="" fill="#396EAD" transform="translate(0,0)"/>
<path d="" fill="#396EAD" transform="translate(0,0)"/>
<path d="" fill="#396EAD" transform="translate(0,0)"/>
<path d="" fill="#396EAD" transform="translate(0,0)"/>
<path d="" fill="#396EAD" transform="translate(0,0)"/>
<path d="" fill="#396EAD" transform="translate(0,0)"/>
<path d="" fill="#396EAC" transform="translate(0,0)"/>
<path d="" fill="#396EAC" transform="translate(0,0)"/>
<path d="" fill="#396EAC" transform="translate(0,0)"/>
<path d="" fill="#396EAC" transform="translate(0,0)"/>
<path d="" fill="#396EAC" transform="translate(0,0)"/>
<path d="" fill="#396EAC" transform="translate(0,0)"/>
<path d="" fill="#396EAC" transform="translate(0,0)"/>
<path d="" fill="#396EAC" transform="translate(0,0)"/>
<path d="" fill="#396DAC" transform="translate(0,0)"/>
<path d="" fill="#396DAC" transform="translate(0,0)"/>
<path d="" fill="#396DAC" transform="translate(0,0)"/>
<path d="" fill="#396DAC" transform="translate(0,0)"/>
<path d="" fill="#396DAC" transform="translate(0,0)"/>
<path d="" fill="#396DAC" transform="translate(0,0)"/>
<path d="" fill="#396DAC" transform="translate(0,0)"/>
<path d="" fill="#396DAC" transform="translate(0,0)"/>
<path d="" fill="#396DAC" transform="translate(0,0)"/>
<path d="" fill="#396DAC" transform="translate(0,0)"/>
<path d="" fill="#396DAC" transform="translate(0,0)"/>
<path d="" fill="#396DAC" transform="translate(0,0)"/>
<path d="" fill="#396DAB" transform="translate(0,0)"/>
<path d="" fill="#396DAB" transform="translate(0,0)"/>
<path d="" fill="#396DAB" transform="translate(0,0)"/>
<path d="" fill="#396DAB" transform="translate(0,0)"/>
<path d="" fill="#396DAB" transform="translate(0,0)"/>
<path d="" fill="#396DAB" transform="translate(0,0)"/>
<path d="" fill="#396DAB" transform="translate(0,0)"/>
<path d="" fill="#396DAB" transform="translate(0,0)"/>
<path d="" fill="#396DAB" transform="translate(0,0)"/>
<path d="" fill="#396DAB" transform="translate(0,0)"/>
<path d="" fill="#396DAB" transform="translate(0,0)"/>
<path d="" fill="#396DAB" transform="translate(0,0)"/>
<path d="" fill="#396DAB" transform="translate(0,0)"/>
<path d="" fill="#396DAB" transform="translate(0,0)"/>
<path d="" fill="#396DAB" transform="translate(0,0)"/>
<path d="" fill="#396DAB" transform="translate(0,0)"/>
<path d="" fill="#396DAB" transform="translate(0,0)"/>
<path d="" fill="#396DAB" transform="translate(0,0)"/>
<path d="" fill="#396DAB" transform="translate(0,0)"/>
<path d="" fill="#396CAB" transform="translate(0,0)"/>
<path d="" fill="#396CAB" transform="translate(0,0)"/>
<path d="" fill="#396CAB" transform="translate(0,0)"/>
<path d="" fill="#396CAB" transform="translate(0,0)"/>
<path d="" fill="#396CAB" transform="translate(0,0)"/>
<path d="" fill="#396CAB" transform="translate(0,0)"/>
<path d="" fill="#396CAB" transform="translate(0,0)"/>
<path d="" fill="#396CAA" transform="translate(0,0)"/>
<path d="" fill="#396CAA" transform="translate(0,0)"/>
<path d="" fill="#396CAA" transform="translate(0,0)"/>
<path d="" fill="#396CAA" transform="translate(0,0)"/>
<path d="" fill="#396CAA" transform="translate(0,0)"/>
<path d="" fill="#396CAA" transform="translate(0,0)"/>
<path d="" fill="#396CAA" transform="translate(0,0)"/>
<path d="" fill="#396CAA" transform="translate(0,0)"/>
<path d="" fill="#396CAA" transform="translate(0,0)"/>
<path d="" fill="#386BA9" transform="translate(0,0)"/>
<path d="" fill="#386BA9" transform="translate(0,0)"/>
<path d="" fill="#386BA9" transform="translate(0,0)"/>
<path d="" fill="#386BA9" transform="translate(0,0)"/>
<path d="" fill="#386BA8" transform="translate(0,0)"/>
<path d="" fill="#386BA8" transform="translate(0,0)"/>
<path d="" fill="#386BA8" transform="translate(0,0)"/>
<path d="" fill="#386BA8" transform="translate(0,0)"/>
<path d="" fill="#2F5C91" transform="translate(0,0)"/>
<path d="" fill="#2F5C91" transform="translate(0,0)"/>
<path d="" fill="#2F5B90" transform="translate(0,0)"/>
<path d="" fill="#2E5A8E" transform="translate(0,0)"/>
</svg>
